<?xml version="1.0" encoding="utf-8"?>
<!-- Generator: Adobe Illustrator 21.0.0, SVG Export Plug-In . SVG Version: 6.00 Build 0)  -->
<svg version="1.1" id="Layer_1" xmlns="http://www.w3.org/2000/svg" xmlns:xlink="http://www.w3.org/1999/xlink" x="0px" y="0px"
	 viewBox="0 0 2000 2000" style="enable-background:new 0 0 2000 2000;" xml:space="preserve">
<style type="text/css">
	.st0{fill:#414042;stroke:#E6E7E8;stroke-width:10;stroke-miterlimit:10;}
	.st1{fill:#414042;stroke:#E6E7E8;stroke-width:3;stroke-miterlimit:10;}
	.st2{font-family:'Bauhaus93';}
	.st3{font-size:100px;}
	.st4{font-size:300px;}
</style>
<g>
	<g>
		<g>
			<g>
				<path class="st0" d="M1478.7,728.2c-21.9-22-42.9-43-64.7-64.8c16.8-18.9,37.9-30.6,62.3-36.1c66.6-15.1,132.6,26.9,147.2,93.2
					c14.4,65.2-26.6,130.9-92.1,145.6c-44.5,10-83.6-2-116.1-34c-35.3-34.8-70.1-70-105.3-104.9c-15.9-15.7-39.6-12.6-49,6.1
					c-6,11.9-3.4,26.4,6.4,35.5c9.9,9.1,24.1,10.5,35.9,3.4c3.2-2,6.1-4.4,11.3-8.2c19.5,20.2,38.9,40.3,58.3,60.4
					c1.4,1.5,2.6,3.3,3.7,4.9c-31,40.6-99.1,52.5-147.3,25.3c-43.7-24.6-66-62.8-63.9-112.8c2.1-51.7,28.6-89.2,76.5-108.5
					c48.5-19.5,93.6-9.9,131.4,26c36.6,34.7,71.4,71.2,107.3,106.6c15.3,15.1,35.8,14,47.1-1.7c8.5-11.8,7.5-27.4-2.5-38
					c-9.7-10.3-25.8-12.3-37.8-4.6C1484.4,723.6,1481.8,725.8,1478.7,728.2z"/>
			</g>
			<g>
				<path class="st0" d="M1604.8,956l-28.1-41.3c60.9-41.5,95.9-100.7,95.9-162.5c0-62.3-35.5-121.9-97.3-163.4l27.9-41.5
					c75.9,51,119.4,125.7,119.4,204.9C1722.5,830.8,1679.6,905.1,1604.8,956z"/>
			</g>
			<g>
				<path class="st0" d="M1184.9,955c-74.8-50.9-117.7-125.2-117.7-203.8c0-79.2,43.5-153.9,119.4-204.9l27.9,41.5
					c-61.8,41.5-97.3,101.1-97.3,163.4c0,61.8,34.9,121,95.9,162.5L1184.9,955z"/>
			</g>
		</g>
	</g>
	<text transform="matrix(1 0 0 1 266.7401 1089.8344)" class="st1 st2 st3">Everything Happens Only In now()</text>
	<g>
		<text transform="matrix(1 0 0 1 329 849)" class="st0 st2 st4">NOW</text>
	</g>
</g>
</svg>
