<?xml version="1.0" encoding="utf-8"?>
<!-- Generator: Adobe Illustrator 21.0.0, SVG Export Plug-In . SVG Version: 6.00 Build 0)  -->
<svg version="1.1" id="Layer_1" xmlns="http://www.w3.org/2000/svg" xmlns:xlink="http://www.w3.org/1999/xlink" x="0px" y="0px"
	 viewBox="0 0 2000 2000" style="enable-background:new 0 0 2000 2000;" xml:space="preserve">
<style type="text/css">
	.st0{fill-rule:evenodd;clip-rule:evenodd;fill:#282829;}
	.st1{fill-rule:evenodd;clip-rule:evenodd;fill:#E6E7E8;}
	.st2{fill:#E6E7E8;}
</style>
<polygon class="st0" points="1013.9,1698.9 1644.8,1337.7 381,1337.7 "/>
<polygon class="st0" points="1013.6,260.5 382.7,621.7 1646.4,621.7 "/>
<rect x="258.1" y="623" class="st0" width="1515.8" height="736.9"/>
<g id="Rectangle_1_copy">
	<g>
		<path class="st1" d="M235.4,600.4v763.4h1555V600.4H235.4z M1767.8,1341.1H258.1V623h1509.8V1341.1z"/>
	</g>
</g>
<g id="Ellipse_5_copy_2">
	<g>
		<path class="st1" d="M334.4,679.5c-10.9,0-19.8,8.9-19.8,19.8c0,10.9,8.9,19.8,19.8,19.8c10.9,0,19.8-8.9,19.8-19.8
			C354.2,688.4,345.3,679.5,334.4,679.5z M334.4,1245c-10.9,0-19.8,8.9-19.8,19.8c0,10.9,8.9,19.8,19.8,19.8
			c10.9,0,19.8-8.9,19.8-19.8C354.2,1253.8,345.3,1245,334.4,1245z M1691.5,719.1c10.9,0,19.8-8.9,19.8-19.8
			c0-10.9-8.9-19.8-19.8-19.8s-19.8,8.9-19.8,19.8C1671.7,710.2,1680.6,719.1,1691.5,719.1z M1691.5,1245
			c-10.9,0-19.8,8.9-19.8,19.8c0,10.9,8.9,19.8,19.8,19.8s19.8-8.9,19.8-19.8C1711.3,1253.8,1702.4,1245,1691.5,1245z"/>
	</g>
</g>
<g id="Shape_5_copy">
	<g>
		<path class="st1" d="M472.9,1154.5h1080v-11.3h-1080V1154.5z M472.9,809.6v11.3h1080v-11.3H472.9z"/>
	</g>
</g>
<polyline class="st1" points="1012.9,249.8 402.8,600.4 448.2,600.4 1012.9,275.9 "/>
<polyline class="st1" points="1012.9,275.9 1577.7,600.4 1623.1,600.4 1012.9,249.8 "/>
<polygon class="st1" points="1581.1,1363.7 1015.8,1688.2 450.5,1363.7 405,1363.7 1015.8,1714.3 1626.5,1363.7 "/>
<g id="Shape_5_copy_5">
	<g>
		<path class="st1" d="M878,469l-12.1-21.3L853.8,469l-24.6,4.6l17.1,17.8l-3.1,24.2l22.7-10.3l22.7,10.3l-3.1-24.2l17.1-17.8
			L878,469z M1025.1,452.1l-12.1-21.3l-12.1,21.3l-24.6,4.6l17.1,17.8l-3.1,24.2l22.7-10.3l22.7,10.3l-3.1-24.2l17.1-17.8
			L1025.1,452.1z M1196.7,473.6l-24.6-4.6l-12.1-21.3l-12.1,21.3l-24.6,4.6l17.1,17.8l-3.1,24.2l22.7-10.3l22.7,10.3l-3.1-24.2
			L1196.7,473.6z"/>
	</g>
</g>
<g id="Shape_5_copy_6">
	<g>
		<path class="st1" d="M878,1469.9l-12.1-21.3l-12.1,21.3l-24.6,4.6l17.1,17.8l-3.1,24.2l22.7-10.3l22.7,10.3l-3.1-24.2l17.1-17.8
			L878,1469.9z M1025.1,1498.1l-12.1-21.3l-12.1,21.3l-24.6,4.6l17.1,17.8l-3.1,24.2l22.7-10.3l22.7,10.3l-3.1-24.2l17.1-17.8
			L1025.1,1498.1z M1196.7,1474.5l-24.6-4.6l-12.1-21.3l-12.1,21.3l-24.6,4.6l17.1,17.8l-3.1,24.2l22.7-10.3l22.7,10.3l-3.1-24.2
			L1196.7,1474.5z"/>
	</g>
</g>
<g>
	<path class="st2" d="M560.6,989.6v-87.4h31.7v161l-94.9-90.4v87.4h-31.6V899.3L560.6,989.6z"/>
	<path class="st2" d="M762.3,924.8c15.7,15.7,23.5,34.5,23.5,56.5c0,22.1-7.8,40.9-23.5,56.4c-15.6,15.5-34.4,23.2-56.4,23.2
		c-22.1-0.1-40.9-7.8-56.4-23.2c-15.6-15.6-23.4-34.4-23.4-56.4c0-21.9,7.8-40.8,23.4-56.5c15.7-15.7,34.5-23.5,56.4-23.5
		S746.6,909.2,762.3,924.8z M672,947.3c-9.4,9.5-14.1,20.8-14.1,33.9c0,13.2,4.7,24.5,14.1,33.9c9.3,9.3,20.6,14,33.9,14
		c13.1,0,24.3-4.7,33.8-14c9.4-9.3,14.2-20.6,14.2-33.9c0-13.2-4.7-24.4-14.2-33.9c-9.4-9.4-20.6-14.1-33.8-14.1
		C692.5,933.2,681.2,937.9,672,947.3z"/>
	<path class="st2" d="M836.2,902.6l29.1,74.5l29.2-74.5l29.1,74.5l29-74.5h34.2l-63.2,160.9l-29.5-78.3l-28.8,78.3l-63.2-160.9
		H836.2z"/>
	<path class="st2" d="M1147.7,1090.1c-13.8-2.7-25.6-14.5-35.3-35.3c-9.6-20.8-14.4-45.3-14.4-73.5c0-28.3,4.8-52.8,14.4-73.6
		c9.6-20.8,21.4-32.5,35.3-35.3l5.5,25.7c-7,0-13,8.1-17.8,24.4c-4.9,16.3-7.3,35.9-7.3,58.8c0,22.8,2.4,42.4,7.3,58.8
		c4.9,16.2,10.8,24.3,17.8,24.3L1147.7,1090.1z"/>
	<path class="st2" d="M1522.9,1040.1c4.9-16.3,7.4-35.9,7.4-58.8c0-23-2.5-42.6-7.4-58.8c-5-16.3-10.9-24.4-17.8-24.4l5.5-25.7
		c13.9,2.8,25.6,14.6,35.2,35.3c9.6,20.8,14.4,45.4,14.4,73.6c0,28.3-4.8,52.8-14.4,73.5c-9.6,20.7-21.4,32.5-35.2,35.3l-5.5-25.7
		C1512,1064.4,1517.9,1056.3,1522.9,1040.1z"/>
</g>
<path class="st2" d="M1297.1,993.1c8.8,8.5,16.3,15.8,24.4,23.6c-20.6,20.8-38.3,43.9-69,50.2c-40.7,8.4-82.1-14.8-95.6-54.7
	c-13.5-39.9,4.9-84,42.5-101.4c33.6-15.5,70-9.2,96.3,16.9c30.3,30.2,60.5,60.7,90.9,90.8c19.8,19.6,46,21.9,66.7,6.5
	c22.4-16.8,26.4-48.8,8.8-70.7c-17.5-21.8-50.2-24.9-70.8-5.9c-10.2,9.4-19,20.3-28.8,30.9c-9.1-9.7-16.3-17.4-24.3-25.8
	c19.5-19,36.3-43,66.7-48.8c32.6-6.3,61,1.8,82.4,27.6c22.1,26.7,25.7,57.4,11.3,88.6c-14,30.2-38.9,46-72.5,47.3
	c-25.5,1-46.4-8.8-64.1-26.6c-30-30.1-60-60.2-90.1-90.1c-16.4-16.3-39.1-20.4-58.4-10.1c-18.7,10-28,25.9-26.8,47.3
	c1.2,20.1,11.6,34.5,29.8,42.2c19.5,8.3,37.9,4.8,53.4-9.6C1279.1,1012.6,1287.7,1002.9,1297.1,993.1z"/>
<g>
	<path class="st2" d="M445.2,1259.7c0-2.8,2.2-5,5-5h3.9c2.7,0,5,2.2,5,5v1.8c0,6.7,1.3,9.9,3.2,11.6c1.5,1.5,3.9,1.8,5.9,1.8
		c5.9,0,9.1-2.5,9.1-9.9c0-6.6-6.4-11.8-13.3-17.1v0.1c-9.2-7.3-18.9-14.8-18.9-28.7c0-15.8,8.3-24.9,23.1-24.9
		c15.1,0,23.1,9.7,23.1,27.4v2c0,2.8-2.2,5-5,5h-3.9c-2.8,0-5-2.2-5-5v-2c0-9.2-2.9-13.4-9.1-13.4c-5.9,0-9.1,3.2-9.1,10.5
		c0,7.1,6.9,12.6,13.7,17.9h-0.1c9.2,7.1,18.6,14.3,18.6,27.9c0,15.7-8.3,24.1-23.1,24.1c-15.4,0-23.1-9-23.1-27.3V1259.7z"/>
	<path class="st2" d="M528.3,1284c0,2.8-2.4,5-5,5h-3.9c-2.8,0-5-2.2-5-5v-84.3c0-2.8,2.2-5,5-5h3.9c2.7,0,5,2.2,5,5V1284z"/>
	<path class="st2" d="M589.9,1289c-1.7,0-4.1-1.5-4.6-3.1l-19.5-48.2v46.2c0,2.8-2.4,5-5,5h-4.1c-2.7,0-5-2.2-5-5v-84.3
		c0-2.8,2.4-5,5-5h3.4c1.8,0,4.1,1.5,4.6,3.1l19.5,48.2v-46.2c0-2.8,2.2-5,5-5h3.9c2.8,0,5,2.2,5,5v84.3c0,2.8-2.2,5-5,5H589.9z"/>
	<path class="st2" d="M623,1221.9c0-10.6,3.1-17.6,7.6-21.8c4.6-4.2,10.2-5.5,15.5-5.5c5.2,0,10.8,1.3,15.4,5.5
		c4.5,4.2,7.4,11.2,7.4,21.8v2c0,2.8-2.2,5-4.9,5h-4.1c-2.8,0-5-2.2-5-5v-2c0-9.4-3.1-13.4-8.8-13.4c-5.9,0-9,4.1-9,13.4v39.6
		c0,9.4,2.9,13.6,9,13.6c2.7,0,5.2-1.1,6.4-2.5c1.7-2.2,2.4-6,2.4-11.1v-2c0-2.8,2.2-5,5-5h4.1c2.7,0,4.9,2.2,4.9,5v2
		c0,11.1-2.9,17.5-7.3,21.8c-4.6,4.5-10.5,5.6-15.5,5.6c-5.3,0-11.1-1.1-15.7-5.6c-4.3-4.3-7.4-10.8-7.4-21.8V1221.9z"/>
	<path class="st2" d="M727.6,1194.6c2.8,0,5,2.2,5,5v3.8c0,2.8-2.2,5-5,5h-21.4v26.3h17.6c2.8,0,5,2.2,5,5v3.8c0,2.8-2.2,5-5,5
		h-17.6v26.5h21.4c2.8,0,5,2.2,5,5v3.8c0,2.8-2.2,5-5,5h-30.2c-2.8,0-5-2.2-5-5v-84.3c0-2.8,2.2-5,5-5H727.6z"/>
	<path class="st2" d="M798.7,1199.5c0-2.8,2.2-5,5-5h36.7c2.8,0,5,2.2,5,5v3.9c0,2.8-2.2,5-5,5h-11.5v75.3c0,2.8-2.2,5-5,5h-3.8
		c-2.8,0-5-2.2-5-5v-75.3h-11.3c-2.8,0-5-2.2-5-5V1199.5z"/>
	<path class="st2" d="M893.4,1235v-35.3c0-2.8,2.2-5,5-5h3.9c2.8,0,5,2.2,5,5v84.3c0,2.8-2.2,5-5,5h-3.9c-2.8,0-5-2.2-5-5v-35.1
		h-15.5v35.1c0,2.8-2.2,5-5,5h-3.9c-2.8,0-5-2.2-5-5v-84.3c0-2.8,2.2-5,5-5h3.9c2.8,0,5,2.2,5,5v35.3H893.4z"/>
	<path class="st2" d="M968.2,1194.6c2.8,0,5,2.2,5,5v3.8c0,2.8-2.2,5-5,5h-21.4v26.3h17.6c2.8,0,5,2.2,5,5v3.8c0,2.8-2.2,5-5,5
		h-17.6v26.5h21.4c2.8,0,5,2.2,5,5v3.8c0,2.8-2.2,5-5,5H938c-2.8,0-5-2.2-5-5v-84.3c0-2.8,2.2-5,5-5H968.2z"/>
	<path class="st2" d="M1045.8,1289c-2.8,0-5-2.2-5-5v-84.3c0-2.8,2.2-5,5-5h13.9c16.4,0,23.7,9,23.7,27c0,13-6,20.2-6,20.2
		c3.6,4.5,6,11.6,6,20.2c0,18.1-7.3,27-23.7,27H1045.8z M1054.7,1208.5v26.3h4.9c6.9,0,9.7-3.8,9.7-13.2s-2.8-13.2-9.7-13.2H1054.7z
		 M1054.7,1248.7v26.5h4.9c6.9,0,9.7-3.8,9.7-13.2c0-9.5-2.8-13.3-9.7-13.3H1054.7z"/>
	<path class="st2" d="M1143.1,1194.6c2.8,0,5,2.2,5,5v3.8c0,2.8-2.2,5-5,5h-21.4v26.3h17.6c2.8,0,5,2.2,5,5v3.8c0,2.8-2.2,5-5,5
		h-17.6v26.5h21.4c2.8,0,5,2.2,5,5v3.8c0,2.8-2.2,5-5,5h-30.2c-2.8,0-5-2.2-5-5v-84.3c0-2.8,2.2-5,5-5H1143.1z"/>
	<path class="st2" d="M1212.5,1241.7c2.7,0,4.9,2.2,4.9,5v15c0,17.8-7.6,27.3-23,27.3c-15.4,0-23.1-9.7-23.1-27.3v-39.9
		c0-17.8,7.7-27.2,23.1-27.2c15.4,0,23,9.4,23,27.2v2c0,2.8-2.2,5-4.9,5h-4.1c-2.8,0-5-2.2-5-5v-2c0-6.6-1.4-9.9-3.1-11.5
		c-1.7-1.5-3.9-1.8-5.9-1.8s-4.3,0.3-5.9,1.8c-2,1.7-3.2,5-3.2,11.5c0,22.3,0,36.3,0,39.9c0,9.1,2.9,13.4,9.1,13.4c6,0,9-4.3,9-13.4
		v-6h-4.9c-7.8,0-8.3-14,0-14H1212.5z"/>
	<path class="st2" d="M1255.1,1284c0,2.8-2.4,5-5,5h-3.9c-2.8,0-5-2.2-5-5v-84.3c0-2.8,2.2-5,5-5h3.9c2.7,0,5,2.2,5,5V1284z"/>
	<path class="st2" d="M1316.7,1289c-1.7,0-4.1-1.5-4.6-3.1l-19.5-48.2v46.2c0,2.8-2.4,5-5,5h-4.1c-2.7,0-5-2.2-5-5v-84.3
		c0-2.8,2.4-5,5-5h3.4c1.8,0,4.1,1.5,4.6,3.1l19.5,48.2v-46.2c0-2.8,2.2-5,5-5h3.9c2.8,0,5,2.2,5,5v84.3c0,2.8-2.2,5-5,5H1316.7z"/>
	<path class="st2" d="M1388.1,1289c-1.7,0-4.1-1.5-4.6-3.1l-19.5-48.2v46.2c0,2.8-2.4,5-5,5h-4.1c-2.7,0-5-2.2-5-5v-84.3
		c0-2.8,2.4-5,5-5h3.4c1.8,0,4.1,1.5,4.6,3.1l19.5,48.2v-46.2c0-2.8,2.2-5,5-5h3.9c2.8,0,5,2.2,5,5v84.3c0,2.8-2.2,5-5,5H1388.1z"/>
	<path class="st2" d="M1434.8,1284c0,2.8-2.4,5-5,5h-3.9c-2.8,0-5-2.2-5-5v-84.3c0-2.8,2.2-5,5-5h3.9c2.7,0,5,2.2,5,5V1284z"/>
	<path class="st2" d="M1496.4,1289c-1.7,0-4.1-1.5-4.6-3.1l-19.5-48.2v46.2c0,2.8-2.4,5-5,5h-4.1c-2.7,0-5-2.2-5-5v-84.3
		c0-2.8,2.4-5,5-5h3.4c1.8,0,4.1,1.5,4.6,3.1l19.5,48.2v-46.2c0-2.8,2.2-5,5-5h3.9c2.8,0,5,2.2,5,5v84.3c0,2.8-2.2,5-5,5H1496.4z"/>
	<path class="st2" d="M1570.9,1241.7c2.7,0,4.9,2.2,4.9,5v15c0,17.8-7.6,27.3-23,27.3c-15.4,0-23.1-9.7-23.1-27.3v-39.9
		c0-17.8,7.7-27.2,23.1-27.2c15.4,0,23,9.4,23,27.2v2c0,2.8-2.2,5-4.9,5h-4.1c-2.8,0-5-2.2-5-5v-2c0-6.6-1.4-9.9-3.1-11.5
		c-1.7-1.5-3.9-1.8-5.9-1.8s-4.3,0.3-5.9,1.8c-2,1.7-3.2,5-3.2,11.5c0,22.3,0,36.3,0,39.9c0,9.1,2.9,13.4,9.1,13.4c6,0,9-4.3,9-13.4
		v-6h-4.9c-7.8,0-8.3-14,0-14H1570.9z"/>
</g>
<g>
	<path class="st2" d="M489.2,743.2v35.3c0,2.8-2.2,5-4.9,5h-3.9c-2.8,0-5-2.2-5-5v-84.3c0-2.8,2.2-5,5-5h15.1c17.1,0,24.6,9,24.6,27
		c0,18.1-7.6,27-24.6,27H489.2z M489.2,703v26.3h6.3c7.6,0,10.6-4.1,10.6-13.2c0-9.4-3.1-13.2-10.6-13.2H489.2z"/>
	<path class="st2" d="M543.8,716.4c0-17.6,7.7-27.3,23-27.3c15.4,0,23,9.5,23,27.3v39.6c0,11.1-2.9,17.5-7.3,21.8
		c-4.6,4.5-10.5,5.6-15.7,5.6c-5,0-10.9-1.1-15.5-5.6c-4.3-4.3-7.4-10.8-7.4-21.8V716.4z M557.8,756.1c0,9.2,2.9,13.6,9,13.6
		c5.9,0,9-4.1,9-13.6v-39.6c0-9.4-2.9-13.4-9-13.4c-6.2,0-9,4.3-9,13.4V756.1z"/>
	<path class="st2" d="M656.6,735.5l6.3-42.1c0.3-2.4,2.7-4.2,5-4.2h4.1c3.1,0,5.5,2.7,5,5.7l-13.4,84.4c-0.4,2.2-2.7,4.2-5,4.2h-3.2
		c-2.2,0-4.5-1.8-4.9-4.1l-7.4-44.7l-7.6,44.7c-0.4,2.2-2.7,4.1-4.9,4.1h-3.1c-2.4,0-4.5-2-4.9-4.2l-13.7-84.4
		c-0.4-3.1,1.7-5.7,4.9-5.7h4.1c2.4,0,4.6,1.8,5,4.2l6.4,42.4l7.3-42.6c0.4-2.2,2.7-4.1,4.9-4.1h3.1c2.2,0,4.5,1.8,4.9,4.1
		L656.6,735.5z"/>
	<path class="st2" d="M733.9,689.1c2.8,0,5,2.2,5,5v3.8c0,2.8-2.2,5-5,5h-21.4v26.3h17.6c2.8,0,5,2.2,5,5v3.8c0,2.8-2.2,5-5,5h-17.6
		v26.5h21.4c2.8,0,5,2.2,5,5v3.8c0,2.8-2.2,5-5,5h-30.2c-2.8,0-5-2.2-5-5v-84.3c0-2.8,2.2-5,5-5H733.9z"/>
	<path class="st2" d="M807.3,778.3c0,2.8-2.2,5-5,5h-3.9c-2.8,0-5-2.2-5-5v-23.4c0-7-3.9-10.9-10.8-10.9h-6.3v34.3
		c0,2.8-2.2,5-4.9,5h-3.9c-2.8,0-5-2.2-5-5V694c0-2.8,2.2-5,5-5H785c17.2,0,23.2,8.7,23.2,27.4c0,8.7-1.5,15.7-5.9,20
		c-0.4,0.4-0.7,0.7-1.1,1.1c4.1,4.3,6,10.1,6,17.4V778.3z M776.2,729.9h6.3c7.8,0,11.9-3.9,11.9-13.4c0-9.5-2.1-13.4-9.4-13.4h-8.8
		V729.9z"/>
	<path class="st2" d="M845.4,778.5c0,2.8-2.4,5-5,5h-3.9c-2.8,0-5-2.2-5-5v-84.3c0-2.8,2.2-5,5-5h3.9c2.7,0,5,2.2,5,5V778.5z"/>
	<path class="st2" d="M906.9,783.5c-1.7,0-4.1-1.5-4.6-3.1l-19.5-48.2v46.2c0,2.8-2.4,5-5,5h-4.1c-2.7,0-5-2.2-5-5v-84.3
		c0-2.8,2.4-5,5-5h3.4c1.8,0,4.1,1.5,4.6,3.1l19.5,48.2v-46.2c0-2.8,2.2-5,5-5h3.9c2.8,0,5,2.2,5,5v84.3c0,2.8-2.2,5-5,5H906.9z"/>
	<path class="st2" d="M981.4,736.2c2.7,0,4.9,2.2,4.9,5v15c0,17.8-7.6,27.3-23,27.3c-15.4,0-23.1-9.7-23.1-27.3v-39.9
		c0-17.8,7.7-27.2,23.1-27.2c15.4,0,23,9.4,23,27.2v2c0,2.8-2.2,5-4.9,5h-4.1c-2.8,0-5-2.2-5-5v-2c0-6.6-1.4-9.9-3.1-11.5
		c-1.7-1.5-3.9-1.8-5.9-1.8s-4.3,0.3-5.9,1.8c-2,1.7-3.2,5-3.2,11.5c0,22.3,0,36.3,0,39.9c0,9.1,2.9,13.4,9.1,13.4c6,0,9-4.3,9-13.4
		v-6h-4.9c-7.8,0-8.3-14,0-14H981.4z"/>
	<path class="st2" d="M1089.1,689.1c2.8,0,5,2.2,5,5v3.8c0,2.8-2.2,5-5,5h-21.4v26.3h17.6c2.8,0,5,2.2,5,5v3.8c0,2.8-2.2,5-5,5
		h-17.6v26.5h21.4c2.8,0,5,2.2,5,5v3.8c0,2.8-2.2,5-5,5h-30.2c-2.8,0-5-2.2-5-5v-84.3c0-2.8,2.2-5,5-5H1089.1z"/>
	<path class="st2" d="M1116.8,694c0-2.8,2.2-5,5-5h36.7c2.8,0,5,2.2,5,5v3.9c0,2.8-2.2,5-5,5H1147v75.3c0,2.8-2.2,5-5,5h-3.8
		c-2.8,0-5-2.2-5-5V703h-11.3c-2.8,0-5-2.2-5-5V694z"/>
	<path class="st2" d="M1222.6,689.1c2.8,0,5,2.2,5,5v3.8c0,2.8-2.2,5-5,5h-21.4v26.3h17.6c2.8,0,5,2.2,5,5v3.8c0,2.8-2.2,5-5,5
		h-17.6v26.5h21.4c2.8,0,5,2.2,5,5v3.8c0,2.8-2.2,5-5,5h-30.2c-2.8,0-5-2.2-5-5v-84.3c0-2.8,2.2-5,5-5H1222.6z"/>
	<path class="st2" d="M1296,778.3c0,2.8-2.2,5-5,5h-3.9c-2.8,0-5-2.2-5-5v-23.4c0-7-3.9-10.9-10.8-10.9h-6.3v34.3c0,2.8-2.2,5-4.9,5
		h-3.9c-2.8,0-5-2.2-5-5V694c0-2.8,2.2-5,5-5h17.6c17.2,0,23.2,8.7,23.2,27.4c0,8.7-1.5,15.7-5.9,20c-0.4,0.4-0.7,0.7-1.1,1.1
		c4.1,4.3,6,10.1,6,17.4V778.3z M1264.9,729.9h6.3c7.8,0,11.9-3.9,11.9-13.4c0-9.5-2.1-13.4-9.4-13.4h-8.8V729.9z"/>
	<path class="st2" d="M1358.7,783.5c-1.7,0-4.1-1.5-4.6-3.1l-19.5-48.2v46.2c0,2.8-2.4,5-5,5h-4.1c-2.7,0-5-2.2-5-5v-84.3
		c0-2.8,2.4-5,5-5h3.4c1.8,0,4.1,1.5,4.6,3.1l19.5,48.2v-46.2c0-2.8,2.2-5,5-5h3.9c2.8,0,5,2.2,5,5v84.3c0,2.8-2.2,5-5,5H1358.7z"/>
	<path class="st2" d="M1405.5,778.5c0,2.8-2.4,5-5,5h-3.9c-2.8,0-5-2.2-5-5v-84.3c0-2.8,2.2-5,5-5h3.9c2.7,0,5,2.2,5,5V778.5z"/>
	<path class="st2" d="M1428.4,694c0-2.8,2.2-5,5-5h36.7c2.8,0,5,2.2,5,5v3.9c0,2.8-2.2,5-5,5h-11.5v75.3c0,2.8-2.2,5-5,5h-3.8
		c-2.8,0-5-2.2-5-5V703h-11.3c-2.8,0-5-2.2-5-5V694z"/>
	<path class="st2" d="M1522.1,717.8l11.2-25.8c0.7-1.4,3.1-2.9,4.6-2.9h4.6c3.8,0,6,3.5,4.6,7l-18.1,42v40.3c0,2.8-2.2,5-5,5h-3.9
		c-2.7,0-4.9-2.2-4.9-5V738c-6-14-12.2-27.9-18.2-41.9c-1.5-3.5,0.7-7,4.6-7h4.5c1.7,0,4.1,1.5,4.6,2.9L1522.1,717.8z"/>
</g>
<g>
	<g>
		<rect x="204.7" y="571" class="st2" width="192.9" height="20.5"/>
	</g>
	<g>
		<rect x="204.7" y="571" class="st2" width="20.5" height="192.9"/>
	</g>
</g>
<g>
	<g>
		<rect x="1626.5" y="571" class="st2" width="192.9" height="20.5"/>
	</g>
	<g>
		<rect x="1798.9" y="571" class="st2" width="20.5" height="192.9"/>
	</g>
</g>
<g>
	<g>
		<rect x="1626.5" y="1372.8" class="st2" width="192.9" height="20.5"/>
	</g>
	<g>
		<rect x="1798.9" y="1200.3" class="st2" width="20.5" height="192.9"/>
	</g>
</g>
<g>
	<g>
		<rect x="205.7" y="1373.4" class="st2" width="192.9" height="20.5"/>
	</g>
	<g>
		<rect x="205.7" y="1201" class="st2" width="20.5" height="192.9"/>
	</g>
</g>
<g>
	<g>
		
			<rect x="1118" y="153" transform="matrix(0.4968 -0.8679 0.8679 0.4968 314.5081 1125.9487)" class="st2" width="20.5" height="277.5"/>
	</g>
	<g>
		
			<rect x="758.8" y="281.5" transform="matrix(0.8679 -0.4968 0.4968 0.8679 -26.3492 484.452)" class="st2" width="277.5" height="20.5"/>
	</g>
</g>
<g>
	<g>
		
			<rect x="889.5" y="1534.3" transform="matrix(0.4968 -0.8679 0.8679 0.4968 -999.2259 1622.7245)" class="st2" width="20.5" height="277.5"/>
	</g>
	<g>
		
			<rect x="991.6" y="1662.8" transform="matrix(0.8679 -0.4968 0.4968 0.8679 -681.7992 782.6423)" class="st2" width="277.5" height="20.5"/>
	</g>
</g>
</svg>
