<?xml version="1.0" encoding="UTF-8" standalone="no"?>
<!-- Created with Inkscape (http://www.inkscape.org/) -->

<svg
   xmlns:dc="http://purl.org/dc/elements/1.1/"
   xmlns:cc="http://creativecommons.org/ns#"
   xmlns:rdf="http://www.w3.org/1999/02/22-rdf-syntax-ns#"
   xmlns:svg="http://www.w3.org/2000/svg"
   xmlns="http://www.w3.org/2000/svg"
   xmlns:sodipodi="http://sodipodi.sourceforge.net/DTD/sodipodi-0.dtd"
   xmlns:inkscape="http://www.inkscape.org/namespaces/inkscape"
   width="793.70081"
   height="1122.5197"
   viewBox="0 0 210 297"
   version="1.1"
   id="svg8"
   inkscape:version="0.92.1 r15371"
   sodipodi:docname="eternal-dark.svg">
  <defs
     id="defs2" />
  <sodipodi:namedview
     id="base"
     pagecolor="#ffffff"
     bordercolor="#666666"
     borderopacity="1.0"
     inkscape:pageopacity="0.0"
     inkscape:pageshadow="2"
     inkscape:zoom="0.12374369"
     inkscape:cx="1972.6074"
     inkscape:cy="609.94316"
     inkscape:document-units="px"
     inkscape:current-layer="g4509"
     showgrid="false"
     units="px"
     inkscape:showpageshadow="false"
     inkscape:pagecheckerboard="true"
     inkscape:window-width="1920"
     inkscape:window-height="1137"
     inkscape:window-x="-8"
     inkscape:window-y="-8"
     inkscape:window-maximized="1" />
  <metadata
     id="metadata5">
    <rdf:RDF>
      <cc:Work
         rdf:about="">
        <dc:format>image/svg+xml</dc:format>
        <dc:type
           rdf:resource="http://purl.org/dc/dcmitype/StillImage" />
        <dc:title />
      </cc:Work>
    </rdf:RDF>
  </metadata>
  <g
     inkscape:label="Layer 1"
     inkscape:groupmode="layer"
     id="layer1">
    <g
       id="g4509"
       transform="matrix(0.88838058,0,0,0.88838058,-240.36235,-693.21158)">
      <g
         id="g4501"
         inkscape:export-filename="F:\BestNowShop.com\Print-High-Res\now\now blue.png"
         inkscape:export-xdpi="299.9971"
         inkscape:export-ydpi="299.9971"
         style="fill:#2f4ab0;fill-opacity:1">
        <g
           id="g4499"
           style="fill:#2f4ab0;fill-opacity:1">
          <g
             id="g4489"
             style="fill:#2f4ab0;fill-opacity:1">
            <path
               id="path4487"
               d="m 1478.7,728.2 c -21.9,-22 -42.9,-43 -64.7,-64.8 16.8,-18.9 37.9,-30.6 62.3,-36.1 66.6,-15.1 132.6,26.9 147.2,93.2 14.4,65.2 -26.6,130.9 -92.1,145.6 -44.5,10 -83.6,-2 -116.1,-34 -35.3,-34.8 -70.1,-70 -105.3,-104.9 -15.9,-15.7 -39.6,-12.6 -49,6.1 -6,11.9 -3.4,26.4 6.4,35.5 9.9,9.1 24.1,10.5 35.9,3.4 3.2,-2 6.1,-4.4 11.3,-8.2 19.5,20.2 38.9,40.3 58.3,60.4 1.4,1.5 2.6,3.3 3.7,4.9 -31,40.6 -99.1,52.5 -147.3,25.3 -43.7,-24.6 -66,-62.8 -63.9,-112.8 2.1,-51.7 28.6,-89.2 76.5,-108.5 48.5,-19.5 93.6,-9.9 131.4,26 36.6,34.7 71.4,71.2 107.3,106.6 15.3,15.1 35.8,14 47.1,-1.7 8.5,-11.8 7.5,-27.4 -2.5,-38 -9.7,-10.3 -25.8,-12.3 -37.8,-4.6 -3,2 -5.6,4.2 -8.7,6.6 z"
               class="st0"
               inkscape:connector-curvature="0"
               style="fill:#2f4ab0;fill-opacity:1;stroke:#e6e7e8;stroke-width:10;stroke-miterlimit:10" />
          </g>
          <g
             id="g4493"
             style="fill:#2f4ab0;fill-opacity:1">
            <path
               id="path4491"
               d="m 1604.8,956 -28.1,-41.3 c 60.9,-41.5 95.9,-100.7 95.9,-162.5 0,-62.3 -35.5,-121.9 -97.3,-163.4 l 27.9,-41.5 c 75.9,51 119.4,125.7 119.4,204.9 -0.1,78.6 -43,152.9 -117.8,203.8 z"
               class="st0"
               inkscape:connector-curvature="0"
               style="fill:#2f4ab0;fill-opacity:1;stroke:#e6e7e8;stroke-width:10;stroke-miterlimit:10" />
          </g>
          <g
             id="g4497"
             style="fill:#2f4ab0;fill-opacity:1">
            <path
               id="path4495"
               d="m 1184.9,955 c -74.8,-50.9 -117.7,-125.2 -117.7,-203.8 0,-79.2 43.5,-153.9 119.4,-204.9 l 27.9,41.5 c -61.8,41.5 -97.3,101.1 -97.3,163.4 0,61.8 34.9,121 95.9,162.5 z"
               class="st0"
               inkscape:connector-curvature="0"
               style="fill:#2f4ab0;fill-opacity:1;stroke:#e6e7e8;stroke-width:10;stroke-miterlimit:10" />
          </g>
        </g>
      </g>
      <text
         id="text4503"
         class="st1 st2 st3"
         transform="translate(266.7401,1089.8344)"
         style="font-size:100px;font-family:Bauhaus93;fill:#2f4ab0;fill-opacity:1;stroke:#e6e7e8;stroke-width:3;stroke-miterlimit:10;"
         inkscape:export-filename="F:\BestNowShop.com\Print-High-Res\now\now blue.png"
         inkscape:export-xdpi="299.9971"
         inkscape:export-ydpi="299.9971">Everything Happens Only In now()</text>
      <g
         id="g4507"
         inkscape:export-filename="F:\BestNowShop.com\Print-High-Res\now\now blue.png"
         inkscape:export-xdpi="299.9971"
         inkscape:export-ydpi="299.9971"
         style="fill:#2f4ab0;fill-opacity:1">
        <text
           id="text4505"
           class="st0 st2 st4"
           transform="translate(329,849)"
           style="font-size:300px;font-family:Bauhaus93;fill:#2f4ab0;fill-opacity:1;stroke:#e6e7e8;stroke-width:10;stroke-miterlimit:10">NOW</text>
      </g>
    </g>
  </g>
  <style
     id="style4485"
     type="text/css">
	.st0{fill:#414042;stroke:#E6E7E8;stroke-width:10;stroke-miterlimit:10;}
	.st1{fill:#414042;stroke:#E6E7E8;stroke-width:3;stroke-miterlimit:10;}
	.st2{font-family:'Bauhaus93';}
	.st3{font-size:100px;}
	.st4{font-size:300px;}
</style>
</svg>
