<?xml version="1.0" encoding="UTF-8" standalone="no"?>
<!-- Created with Inkscape (http://www.inkscape.org/) -->

<svg
   xmlns:dc="http://purl.org/dc/elements/1.1/"
   xmlns:cc="http://creativecommons.org/ns#"
   xmlns:rdf="http://www.w3.org/1999/02/22-rdf-syntax-ns#"
   xmlns:svg="http://www.w3.org/2000/svg"
   xmlns="http://www.w3.org/2000/svg"
   xmlns:sodipodi="http://sodipodi.sourceforge.net/DTD/sodipodi-0.dtd"
   xmlns:inkscape="http://www.inkscape.org/namespaces/inkscape"
   width="1900"
   height="1240"
   viewBox="0 0 502.70832 328.08334"
   version="1.1"
   id="svg8"
   inkscape:version="0.92.1 r15371"
   sodipodi:docname="vegetarian black.svg">
  <defs
     id="defs2" />
  <sodipodi:namedview
     id="base"
     pagecolor="#ffffff"
     bordercolor="#666666"
     borderopacity="1.0"
     inkscape:pageopacity="0.0"
     inkscape:pageshadow="2"
     inkscape:zoom="0.94468608"
     inkscape:cx="-724.45169"
     inkscape:cy="1008.3861"
     inkscape:document-units="px"
     inkscape:current-layer="layer1"
     showgrid="false"
     units="px"
     showborder="false"
     inkscape:window-width="1920"
     inkscape:window-height="1137"
     inkscape:window-x="-8"
     inkscape:window-y="-8"
     inkscape:window-maximized="1"
     inkscape:pagecheckerboard="true" />
  <metadata
     id="metadata5">
    <rdf:RDF>
      <cc:Work
         rdf:about="">
        <dc:format>image/svg+xml</dc:format>
        <dc:type
           rdf:resource="http://purl.org/dc/dcmitype/StillImage" />
        <dc:title></dc:title>
      </cc:Work>
    </rdf:RDF>
  </metadata>
  <g
     inkscape:label="Layer 1"
     inkscape:groupmode="layer"
     id="layer1"
     transform="translate(0,31.08337)">
    <g
       aria-label="VEGGIE"
       transform="scale(0.80481771,1.2425174)"
       style="font-style:normal;font-variant:normal;font-weight:normal;font-stretch:extra-condensed;font-size:80.59407043px;line-height:1.25;font-family:'Gloucester MT Extra Condensed';-inkscape-font-specification:'Gloucester MT Extra Condensed, Extra-Condensed';font-variant-ligatures:normal;font-variant-caps:normal;font-variant-numeric:normal;font-feature-settings:normal;text-align:start;letter-spacing:0px;word-spacing:0px;writing-mode:lr-tb;text-anchor:start;fill:#000000;fill-opacity:1;stroke:#8683ff;stroke-width:0.02645833;stroke-miterlimit:4;stroke-dasharray:none;stroke-opacity:1"
       id="text4510-2">
      <path
         d="m -262.17607,1.4911763 5.43065,-27.3500383 q 0.15741,-0.668994 0.15741,-1.141225 0,-1.652808 -1.77086,-2.59727 -1.33799,-0.747699 -1.33799,-1.652808 v -1.967628 q 0,-0.983815 1.10187,-0.983815 h 9.28721 q 1.18057,0 1.18057,0.983815 v 1.967628 q 0,0.983815 -1.10187,1.534751 -1.88892,0.983814 -2.4005,3.541731 l -10.27103,52.771801 q -0.23611,1.21993 -1.14122,1.21993 h -1.61346 q -0.90511,0 -1.14122,-1.21993 l -10.34973,-52.45698 q -0.59029,-2.833386 -2.47921,-4.053315 -1.02317,-0.668994 -1.02317,-1.574103 v -1.810219 q 0,-0.905109 1.02317,-0.905109 h 12.15995 q 0.94446,0 0.94446,0.983815 v 1.967628 q 0,0.747699 -0.98382,1.337988 -1.33798,0.865756 -1.33798,2.203744 0,0.511583 0.11805,1.21993 z"
         style="font-style:normal;font-variant:normal;font-weight:normal;font-stretch:extra-condensed;font-size:80.59407043px;font-family:'Gloucester MT Extra Condensed';-inkscape-font-specification:'Gloucester MT Extra Condensed, Extra-Condensed';font-variant-ligatures:normal;font-variant-caps:normal;font-variant-numeric:normal;font-feature-settings:normal;text-align:start;writing-mode:lr-tb;text-anchor:start;stroke:#8683ff;stroke-width:0.02645833;stroke-miterlimit:4;stroke-dasharray:none;stroke-opacity:1"
         id="path4579"
         inkscape:connector-curvature="0" />
      <path
         d="m -217.98313,26.991644 h -26.95652 q -0.94446,0 -0.94446,-0.944462 v -1.731513 q 0,-0.826404 1.29864,-1.810218 1.14122,-0.90511 1.14122,-2.833386 v -46.593447 q 0,-2.046334 -1.45604,-3.0695 -0.98382,-0.668994 -0.98382,-1.574103 v -1.888924 q 0,-0.747699 0.94446,-0.747699 h 20.22723 q 0.55093,0 2.08568,-0.118058 1.37734,-0.118057 1.73152,-0.118057 1.29863,0 1.29863,0.708346 v 11.569657 q 0,0.905109 -0.19676,1.101872 -0.15741,0.15741 -0.98382,0.15741 h -1.45604 q -0.94446,0 -1.06252,-1.101872 -0.43288,-3.069501 -1.5741,-5.233892 -1.10188,-2.203744 -4.4862,-2.203744 h -4.95842 v 22.2735561 h 1.81022 q 1.69216,0 2.3218,-0.6296411 0.62964,-0.6689938 1.5741,-4.092668 0.31482,-1.101872 0.43288,-1.219929 0.11806,-0.118058 0.70835,-0.118058 h 1.73151 q 1.02317,0 1.02317,0.983814 V 2.5930484 q 0,0.9444617 -0.94447,0.9444617 h -1.81021 q -0.59029,0 -0.82641,-0.275468 -0.23611,-0.3148206 -0.62964,-1.8495709 -0.70835,-2.7940328 -1.53475,-3.3843214 -0.8264,-0.6296411 -2.28245,-0.6296411 h -1.5741 V 22.308688 h 5.3126 q 2.95144,0 4.09266,-1.37734 1.14123,-1.416693 2.83339,-7.673752 0.39352,-1.416693 1.41669,-1.416693 h 1.69216 q 0.98382,0 0.98382,0.983814 z"
         style="font-style:normal;font-variant:normal;font-weight:normal;font-stretch:extra-condensed;font-size:80.59407043px;font-family:'Gloucester MT Extra Condensed';-inkscape-font-specification:'Gloucester MT Extra Condensed, Extra-Condensed';font-variant-ligatures:normal;font-variant-caps:normal;font-variant-numeric:normal;font-feature-settings:normal;text-align:start;writing-mode:lr-tb;text-anchor:start;stroke:#8683ff;stroke-width:0.02645833;stroke-miterlimit:4;stroke-dasharray:none;stroke-opacity:1"
         id="path4581"
         inkscape:connector-curvature="0" />
      <path
         d="m -197.24433,1.4911763 h 9.91685 q 0.98381,0 1.21993,0.2361154 0.27547,0.1967629 0.27547,0.9051092 0,0.3148206 -0.11806,1.3773401 -0.19676,2.5579173 -0.19676,4.2500779 V 19.27854 q 0,1.101872 0.59029,1.652808 0.47223,0.393525 0.47223,1.062519 v 1.416693 q 0,0.826404 -0.98382,1.53475 -0.98381,0.668994 -4.05331,1.770866 -3.0695,1.101872 -6.84735,1.101872 -17.82672,0 -17.82672,-29.0815518 0,-8.303393 1.73152,-15.8590872 1.73151,-7.595047 5.94224,-12.750234 4.25007,-5.155187 9.05109,-5.155187 2.4005,0 5.23389,1.337988 0.8264,0.393525 1.29863,0.393525 0.23612,0 0.90511,-0.31482 0.51159,-0.236116 0.86576,-0.236116 h 1.53475 q 1.10187,0 1.10187,1.06252 v 12.986349 q 0,1.141225 -0.98381,1.141225 h -1.65281 q -0.78705,0 -0.94446,-0.157411 -0.11806,-0.196762 -0.62964,-2.518564 -1.96763,-9.16915 -6.8867,-9.16915 -2.36116,0 -3.89591,2.164392 -1.53475,2.164391 -2.20374,10.034906 -0.62964,7.831162 -0.62964,15.6229715 0,8.1853353 0.62964,13.4979325 0.62964,5.273245 1.4954,7.988573 0.86575,2.675975 2.04633,3.659789 1.21993,0.983814 2.83339,0.983814 3.46302,0 3.46302,-4.958424 V 9.9913322 q 0,-2.2037441 -0.55093,-3.1482059 -0.55094,-0.9838143 -2.32181,-1.7315132 -0.86575,-0.3541732 -0.86575,-1.0625195 V 2.3962855 q 0,-0.9051092 0.98381,-0.9051092 z"
         style="font-style:normal;font-variant:normal;font-weight:normal;font-stretch:extra-condensed;font-size:80.59407043px;font-family:'Gloucester MT Extra Condensed';-inkscape-font-specification:'Gloucester MT Extra Condensed, Extra-Condensed';font-variant-ligatures:normal;font-variant-caps:normal;font-variant-numeric:normal;font-feature-settings:normal;text-align:start;writing-mode:lr-tb;text-anchor:start;stroke:#8683ff;stroke-width:0.02645833;stroke-miterlimit:4;stroke-dasharray:none;stroke-opacity:1"
         id="path4583"
         inkscape:connector-curvature="0" />
      <path
         d="m -163.40111,1.4911763 h 9.91685 q 0.98381,0 1.21993,0.2361154 0.27546,0.1967629 0.27546,0.9051092 0,0.3148206 -0.11805,1.3773401 -0.19677,2.5579173 -0.19677,4.2500779 V 19.27854 q 0,1.101872 0.59029,1.652808 0.47223,0.393525 0.47223,1.062519 v 1.416693 q 0,0.826404 -0.98381,1.53475 -0.98382,0.668994 -4.05332,1.770866 -3.0695,1.101872 -6.84734,1.101872 -17.82672,0 -17.82672,-29.0815518 0,-8.303393 1.73151,-15.8590872 1.73152,-7.595047 5.94224,-12.750234 4.25008,-5.155187 9.05109,-5.155187 2.40051,0 5.2339,1.337988 0.8264,0.393525 1.29863,0.393525 0.23612,0 0.90511,-0.31482 0.51158,-0.236116 0.86576,-0.236116 h 1.53475 q 1.10187,0 1.10187,1.06252 v 12.986349 q 0,1.141225 -0.98382,1.141225 h -1.6528 q -0.78706,0 -0.94447,-0.157411 -0.11805,-0.196762 -0.62964,-2.518564 -1.96763,-9.16915 -6.8867,-9.16915 -2.36115,0 -3.8959,2.164392 -1.53475,2.164391 -2.20375,10.034906 -0.62964,7.831162 -0.62964,15.6229715 0,8.1853353 0.62964,13.4979325 0.62965,5.273245 1.4954,7.988573 0.86576,2.675975 2.04634,3.659789 1.21993,0.983814 2.83338,0.983814 3.46303,0 3.46303,-4.958424 V 9.9913322 q 0,-2.2037441 -0.55094,-3.1482059 -0.55093,-0.9838143 -2.3218,-1.7315132 -0.86576,-0.3541732 -0.86576,-1.0625195 V 2.3962855 q 0,-0.9051092 0.98382,-0.9051092 z"
         style="font-style:normal;font-variant:normal;font-weight:normal;font-stretch:extra-condensed;font-size:80.59407043px;font-family:'Gloucester MT Extra Condensed';-inkscape-font-specification:'Gloucester MT Extra Condensed, Extra-Condensed';font-variant-ligatures:normal;font-variant-caps:normal;font-variant-numeric:normal;font-feature-settings:normal;text-align:start;writing-mode:lr-tb;text-anchor:start;stroke:#8683ff;stroke-width:0.02645833;stroke-miterlimit:4;stroke-dasharray:none;stroke-opacity:1"
         id="path4585"
         inkscape:connector-curvature="0" />
      <path
         d="m -136.56266,19.672065 q 0,2.046334 1.4954,3.069501 1.02316,0.668994 1.02316,1.574103 v 1.770866 q 0,0.905109 -1.02316,0.905109 h -12.27801 q -0.86575,0 -0.86575,-0.826404 v -1.849571 q 0,-0.865757 1.02316,-1.574103 1.4954,-1.06252 1.4954,-3.069501 v -46.593447 q 0,-2.006981 -1.4954,-3.030148 -1.02316,-0.668994 -1.02316,-1.613455 v -1.731514 q 0,-0.905109 1.02316,-0.905109 h 12.27801 q 0.86575,0 0.86575,0.826404 v 1.810219 q 0,0.905109 -1.02316,1.613455 -1.4954,1.06252 -1.4954,3.030148 z"
         style="font-style:normal;font-variant:normal;font-weight:normal;font-stretch:extra-condensed;font-size:80.59407043px;font-family:'Gloucester MT Extra Condensed';-inkscape-font-specification:'Gloucester MT Extra Condensed, Extra-Condensed';font-variant-ligatures:normal;font-variant-caps:normal;font-variant-numeric:normal;font-feature-settings:normal;text-align:start;writing-mode:lr-tb;text-anchor:start;stroke:#8683ff;stroke-width:0.02645833;stroke-miterlimit:4;stroke-dasharray:none;stroke-opacity:1"
         id="path4587"
         inkscape:connector-curvature="0" />
      <path
         d="m -103.54586,26.991644 h -26.95651 q -0.94446,0 -0.94446,-0.944462 v -1.731513 q 0,-0.826404 1.29863,-1.810218 1.14123,-0.90511 1.14123,-2.833386 v -46.593447 q 0,-2.046334 -1.45605,-3.0695 -0.98381,-0.668994 -0.98381,-1.574103 v -1.888924 q 0,-0.747699 0.94446,-0.747699 h 20.22722 q 0.55094,0 2.08569,-0.118058 1.37734,-0.118057 1.73151,-0.118057 1.29864,0 1.29864,0.708346 v 11.569657 q 0,0.905109 -0.19677,1.101872 -0.15741,0.15741 -0.98381,0.15741 h -1.45605 q -0.94446,0 -1.06252,-1.101872 -0.43287,-3.069501 -1.5741,-5.233892 -1.10187,-2.203744 -4.48619,-2.203744 h -4.95843 v 22.2735561 h 1.81022 q 1.69216,0 2.3218,-0.6296411 0.62964,-0.6689938 1.57411,-4.092668 0.31482,-1.101872 0.43287,-1.219929 0.11806,-0.118058 0.70835,-0.118058 h 1.73151 q 1.02317,0 1.02317,0.983814 V 2.5930484 q 0,0.9444617 -0.94446,0.9444617 h -1.81022 q -0.59029,0 -0.8264,-0.275468 -0.23612,-0.3148206 -0.62964,-1.8495709 -0.70835,-2.7940328 -1.53475,-3.3843214 -0.82641,-0.6296411 -2.28245,-0.6296411 h -1.57411 V 22.308688 h 5.3126 q 2.95144,0 4.09267,-1.37734 1.14122,-1.416693 2.83338,-7.673752 0.39353,-1.416693 1.4167,-1.416693 h 1.69216 q 0.98381,0 0.98381,0.983814 z"
         style="font-style:normal;font-variant:normal;font-weight:normal;font-stretch:extra-condensed;font-size:80.59407043px;font-family:'Gloucester MT Extra Condensed';-inkscape-font-specification:'Gloucester MT Extra Condensed, Extra-Condensed';font-variant-ligatures:normal;font-variant-caps:normal;font-variant-numeric:normal;font-feature-settings:normal;text-align:start;writing-mode:lr-tb;text-anchor:start;stroke:#8683ff;stroke-width:0.02645833;stroke-miterlimit:4;stroke-dasharray:none;stroke-opacity:1"
         id="path4589"
         inkscape:connector-curvature="0" />
    </g>
    <text
       xml:space="preserve"
       style="font-style:normal;font-variant:normal;font-weight:normal;font-stretch:normal;font-size:31.04277229px;line-height:1.25;font-family:'Freestyle Script';-inkscape-font-specification:'Freestyle Script, Normal';font-variant-ligatures:normal;font-variant-caps:normal;font-variant-numeric:normal;font-feature-settings:normal;text-align:start;letter-spacing:0px;word-spacing:0px;writing-mode:lr-tb;text-anchor:start;fill:#ffffff;fill-opacity:1;stroke:none;stroke-width:0.32336426;stroke-opacity:1"
       x="-251.5536"
       y="-49.757637"
       id="text4491"
       transform="scale(0.88791329,1.1262361)"
       inkscape:label="designed by nature"
       inkscape:export-filename="F:\BestNowShop.com\Print-High-Res\vege\vege black.png"
       inkscape:export-xdpi="475.48001"
       inkscape:export-ydpi="475.48001"><tspan
         sodipodi:role="line"
         id="tspan4489"
         x="-251.5536"
         y="-49.757637"
         style="font-style:normal;font-variant:normal;font-weight:normal;font-stretch:normal;font-size:31.04277229px;font-family:'Freestyle Script';-inkscape-font-specification:'Freestyle Script, Normal';font-variant-ligatures:normal;font-variant-caps:normal;font-variant-numeric:normal;font-feature-settings:normal;text-align:start;writing-mode:lr-tb;text-anchor:start;fill:#ffffff;stroke:none;stroke-width:0.32336426;stroke-opacity:1">Designed By Nature</tspan></text>
    <text
       xml:space="preserve"
       style="font-style:normal;font-variant:normal;font-weight:normal;font-stretch:normal;font-size:30.58645058px;line-height:1.25;font-family:Gabriola;-inkscape-font-specification:'Gabriola, Normal';font-variant-ligatures:normal;font-variant-caps:normal;font-variant-numeric:normal;font-feature-settings:normal;text-align:start;letter-spacing:0px;word-spacing:0px;writing-mode:lr-tb;text-anchor:start;fill:#ffffff;fill-opacity:1;stroke:none;stroke-width:0.31862086;stroke-opacity:1"
       x="-254.05263"
       y="56.850212"
       id="text4495"
       transform="scale(0.88027983,1.1360024)"
       inkscape:label="supported by life"
       inkscape:export-filename="F:\BestNowShop.com\Print-High-Res\vege\vege black.png"
       inkscape:export-xdpi="475.48001"
       inkscape:export-ydpi="475.48001"><tspan
         sodipodi:role="line"
         id="tspan4648"
         x="-254.05263"
         y="56.850212"
         style="fill:#ffffff;stroke-width:0.31862086">Supported By Life</tspan></text>
    <g
       aria-label="VEGGIE"
       transform="scale(0.80481773,1.2425174)"
       style="font-style:normal;font-variant:normal;font-weight:normal;font-stretch:extra-condensed;font-size:80.59407043px;line-height:1.25;font-family:'Gloucester MT Extra Condensed';-inkscape-font-specification:'Gloucester MT Extra Condensed, Extra-Condensed';font-variant-ligatures:normal;font-variant-caps:normal;font-variant-numeric:normal;font-feature-settings:normal;text-align:start;letter-spacing:0px;word-spacing:0px;writing-mode:lr-tb;text-anchor:start;fill:#006a00;fill-opacity:1;stroke:#fbffff;stroke-width:2.24181454;stroke-opacity:1;stroke-miterlimit:4;stroke-dasharray:none"
       id="text4510">
      <path
         d="m -262.17607,1.4911763 5.43065,-27.3500383 q 0.15741,-0.668994 0.15741,-1.141225 0,-1.652808 -1.77086,-2.59727 -1.33799,-0.747699 -1.33799,-1.652808 v -1.967628 q 0,-0.983815 1.10187,-0.983815 h 9.28721 q 1.18057,0 1.18057,0.983815 v 1.967628 q 0,0.983815 -1.10187,1.534751 -1.88892,0.983814 -2.4005,3.541731 l -10.27103,52.771801 q -0.23611,1.21993 -1.14122,1.21993 h -1.61346 q -0.90511,0 -1.14122,-1.21993 l -10.34973,-52.45698 q -0.59029,-2.833386 -2.47921,-4.053315 -1.02317,-0.668994 -1.02317,-1.574103 v -1.810219 q 0,-0.905109 1.02317,-0.905109 h 12.15995 q 0.94446,0 0.94446,0.983815 v 1.967628 q 0,0.747699 -0.98382,1.337988 -1.33798,0.865756 -1.33798,2.203744 0,0.511583 0.11805,1.21993 z"
         style="font-style:normal;font-variant:normal;font-weight:normal;font-stretch:extra-condensed;font-size:80.59407043px;font-family:'Gloucester MT Extra Condensed';-inkscape-font-specification:'Gloucester MT Extra Condensed, Extra-Condensed';font-variant-ligatures:normal;font-variant-caps:normal;font-variant-numeric:normal;font-feature-settings:normal;text-align:start;writing-mode:lr-tb;text-anchor:start;stroke-width:2.24181454;stroke:#fbffff;stroke-opacity:1;stroke-miterlimit:4;stroke-dasharray:none;fill:#006a00;fill-opacity:1"
         id="path4592"
         inkscape:connector-curvature="0" />
      <path
         d="m -217.98313,26.991644 h -26.95652 q -0.94446,0 -0.94446,-0.944462 v -1.731513 q 0,-0.826404 1.29864,-1.810218 1.14122,-0.90511 1.14122,-2.833386 v -46.593447 q 0,-2.046334 -1.45604,-3.0695 -0.98382,-0.668994 -0.98382,-1.574103 v -1.888924 q 0,-0.747699 0.94446,-0.747699 h 20.22723 q 0.55093,0 2.08568,-0.118058 1.37734,-0.118057 1.73152,-0.118057 1.29863,0 1.29863,0.708346 v 11.569657 q 0,0.905109 -0.19676,1.101872 -0.15741,0.15741 -0.98382,0.15741 h -1.45604 q -0.94446,0 -1.06252,-1.101872 -0.43288,-3.069501 -1.5741,-5.233892 -1.10188,-2.203744 -4.4862,-2.203744 h -4.95842 v 22.2735561 h 1.81022 q 1.69216,0 2.3218,-0.6296411 0.62964,-0.6689938 1.5741,-4.092668 0.31482,-1.101872 0.43288,-1.219929 0.11806,-0.118058 0.70835,-0.118058 h 1.73151 q 1.02317,0 1.02317,0.983814 V 2.5930484 q 0,0.9444617 -0.94447,0.9444617 h -1.81021 q -0.59029,0 -0.82641,-0.275468 -0.23611,-0.3148206 -0.62964,-1.8495709 -0.70835,-2.7940328 -1.53475,-3.3843214 -0.8264,-0.6296411 -2.28245,-0.6296411 h -1.5741 V 22.308688 h 5.3126 q 2.95144,0 4.09266,-1.37734 1.14123,-1.416693 2.83339,-7.673752 0.39352,-1.416693 1.41669,-1.416693 h 1.69216 q 0.98382,0 0.98382,0.983814 z"
         style="font-style:normal;font-variant:normal;font-weight:normal;font-stretch:extra-condensed;font-size:80.59407043px;font-family:'Gloucester MT Extra Condensed';-inkscape-font-specification:'Gloucester MT Extra Condensed, Extra-Condensed';font-variant-ligatures:normal;font-variant-caps:normal;font-variant-numeric:normal;font-feature-settings:normal;text-align:start;writing-mode:lr-tb;text-anchor:start;stroke-width:2.24181454;stroke:#fbffff;stroke-opacity:1;stroke-miterlimit:4;stroke-dasharray:none;fill:#006a00;fill-opacity:1"
         id="path4594"
         inkscape:connector-curvature="0" />
      <path
         d="m -197.24433,1.4911763 h 9.91685 q 0.98381,0 1.21993,0.2361154 0.27547,0.1967629 0.27547,0.9051092 0,0.3148206 -0.11806,1.3773401 -0.19676,2.5579173 -0.19676,4.2500779 V 19.27854 q 0,1.101872 0.59029,1.652808 0.47223,0.393525 0.47223,1.062519 v 1.416693 q 0,0.826404 -0.98382,1.53475 -0.98381,0.668994 -4.05331,1.770866 -3.0695,1.101872 -6.84735,1.101872 -17.82672,0 -17.82672,-29.0815518 0,-8.303393 1.73152,-15.8590872 1.73151,-7.595047 5.94224,-12.750234 4.25007,-5.155187 9.05109,-5.155187 2.4005,0 5.23389,1.337988 0.8264,0.393525 1.29863,0.393525 0.23612,0 0.90511,-0.31482 0.51159,-0.236116 0.86576,-0.236116 h 1.53475 q 1.10187,0 1.10187,1.06252 v 12.986349 q 0,1.141225 -0.98381,1.141225 h -1.65281 q -0.78705,0 -0.94446,-0.157411 -0.11806,-0.196762 -0.62964,-2.518564 -1.96763,-9.16915 -6.8867,-9.16915 -2.36116,0 -3.89591,2.164392 -1.53475,2.164391 -2.20374,10.034906 -0.62964,7.831162 -0.62964,15.6229715 0,8.1853353 0.62964,13.4979325 0.62964,5.273245 1.4954,7.988573 0.86575,2.675975 2.04633,3.659789 1.21993,0.983814 2.83339,0.983814 3.46302,0 3.46302,-4.958424 V 9.9913322 q 0,-2.2037441 -0.55093,-3.1482059 -0.55094,-0.9838143 -2.32181,-1.7315132 -0.86575,-0.3541732 -0.86575,-1.0625195 V 2.3962855 q 0,-0.9051092 0.98381,-0.9051092 z"
         style="font-style:normal;font-variant:normal;font-weight:normal;font-stretch:extra-condensed;font-size:80.59407043px;font-family:'Gloucester MT Extra Condensed';-inkscape-font-specification:'Gloucester MT Extra Condensed, Extra-Condensed';font-variant-ligatures:normal;font-variant-caps:normal;font-variant-numeric:normal;font-feature-settings:normal;text-align:start;writing-mode:lr-tb;text-anchor:start;stroke-width:2.24181454;stroke:#fbffff;stroke-opacity:1;stroke-miterlimit:4;stroke-dasharray:none;fill:#006a00;fill-opacity:1"
         id="path4596"
         inkscape:connector-curvature="0" />
      <path
         d="m -163.40111,1.4911763 h 9.91685 q 0.98381,0 1.21993,0.2361154 0.27546,0.1967629 0.27546,0.9051092 0,0.3148206 -0.11805,1.3773401 -0.19677,2.5579173 -0.19677,4.2500779 V 19.27854 q 0,1.101872 0.59029,1.652808 0.47223,0.393525 0.47223,1.062519 v 1.416693 q 0,0.826404 -0.98381,1.53475 -0.98382,0.668994 -4.05332,1.770866 -3.0695,1.101872 -6.84734,1.101872 -17.82672,0 -17.82672,-29.0815518 0,-8.303393 1.73151,-15.8590872 1.73152,-7.595047 5.94224,-12.750234 4.25008,-5.155187 9.05109,-5.155187 2.40051,0 5.2339,1.337988 0.8264,0.393525 1.29863,0.393525 0.23612,0 0.90511,-0.31482 0.51158,-0.236116 0.86576,-0.236116 h 1.53475 q 1.10187,0 1.10187,1.06252 v 12.986349 q 0,1.141225 -0.98382,1.141225 h -1.6528 q -0.78706,0 -0.94447,-0.157411 -0.11805,-0.196762 -0.62964,-2.518564 -1.96763,-9.16915 -6.8867,-9.16915 -2.36115,0 -3.8959,2.164392 -1.53475,2.164391 -2.20375,10.034906 -0.62964,7.831162 -0.62964,15.6229715 0,8.1853353 0.62964,13.4979325 0.62965,5.273245 1.4954,7.988573 0.86576,2.675975 2.04634,3.659789 1.21993,0.983814 2.83338,0.983814 3.46303,0 3.46303,-4.958424 V 9.9913322 q 0,-2.2037441 -0.55094,-3.1482059 -0.55093,-0.9838143 -2.3218,-1.7315132 -0.86576,-0.3541732 -0.86576,-1.0625195 V 2.3962855 q 0,-0.9051092 0.98382,-0.9051092 z"
         style="font-style:normal;font-variant:normal;font-weight:normal;font-stretch:extra-condensed;font-size:80.59407043px;font-family:'Gloucester MT Extra Condensed';-inkscape-font-specification:'Gloucester MT Extra Condensed, Extra-Condensed';font-variant-ligatures:normal;font-variant-caps:normal;font-variant-numeric:normal;font-feature-settings:normal;text-align:start;writing-mode:lr-tb;text-anchor:start;stroke-width:2.24181454;stroke:#fbffff;stroke-opacity:1;stroke-miterlimit:4;stroke-dasharray:none;fill:#006a00;fill-opacity:1"
         id="path4598"
         inkscape:connector-curvature="0" />
      <path
         d="m -136.56266,19.672065 q 0,2.046334 1.4954,3.069501 1.02316,0.668994 1.02316,1.574103 v 1.770866 q 0,0.905109 -1.02316,0.905109 h -12.27801 q -0.86575,0 -0.86575,-0.826404 v -1.849571 q 0,-0.865757 1.02316,-1.574103 1.4954,-1.06252 1.4954,-3.069501 v -46.593447 q 0,-2.006981 -1.4954,-3.030148 -1.02316,-0.668994 -1.02316,-1.613455 v -1.731514 q 0,-0.905109 1.02316,-0.905109 h 12.27801 q 0.86575,0 0.86575,0.826404 v 1.810219 q 0,0.905109 -1.02316,1.613455 -1.4954,1.06252 -1.4954,3.030148 z"
         style="font-style:normal;font-variant:normal;font-weight:normal;font-stretch:extra-condensed;font-size:80.59407043px;font-family:'Gloucester MT Extra Condensed';-inkscape-font-specification:'Gloucester MT Extra Condensed, Extra-Condensed';font-variant-ligatures:normal;font-variant-caps:normal;font-variant-numeric:normal;font-feature-settings:normal;text-align:start;writing-mode:lr-tb;text-anchor:start;stroke-width:2.24181454;stroke:#fbffff;stroke-opacity:1;stroke-miterlimit:4;stroke-dasharray:none;fill:#006a00;fill-opacity:1"
         id="path4600"
         inkscape:connector-curvature="0" />
      <path
         d="m -103.54586,26.991644 h -26.95651 q -0.94446,0 -0.94446,-0.944462 v -1.731513 q 0,-0.826404 1.29863,-1.810218 1.14123,-0.90511 1.14123,-2.833386 v -46.593447 q 0,-2.046334 -1.45605,-3.0695 -0.98381,-0.668994 -0.98381,-1.574103 v -1.888924 q 0,-0.747699 0.94446,-0.747699 h 20.22722 q 0.55094,0 2.08569,-0.118058 1.37734,-0.118057 1.73151,-0.118057 1.29864,0 1.29864,0.708346 v 11.569657 q 0,0.905109 -0.19677,1.101872 -0.15741,0.15741 -0.98381,0.15741 h -1.45605 q -0.94446,0 -1.06252,-1.101872 -0.43287,-3.069501 -1.5741,-5.233892 -1.10187,-2.203744 -4.48619,-2.203744 h -4.95843 v 22.2735561 h 1.81022 q 1.69216,0 2.3218,-0.6296411 0.62964,-0.6689938 1.57411,-4.092668 0.31482,-1.101872 0.43287,-1.219929 0.11806,-0.118058 0.70835,-0.118058 h 1.73151 q 1.02317,0 1.02317,0.983814 V 2.5930484 q 0,0.9444617 -0.94446,0.9444617 h -1.81022 q -0.59029,0 -0.8264,-0.275468 -0.23612,-0.3148206 -0.62964,-1.8495709 -0.70835,-2.7940328 -1.53475,-3.3843214 -0.82641,-0.6296411 -2.28245,-0.6296411 h -1.57411 V 22.308688 h 5.3126 q 2.95144,0 4.09267,-1.37734 1.14122,-1.416693 2.83338,-7.673752 0.39353,-1.416693 1.4167,-1.416693 h 1.69216 q 0.98381,0 0.98381,0.983814 z"
         style="font-style:normal;font-variant:normal;font-weight:normal;font-stretch:extra-condensed;font-size:80.59407043px;font-family:'Gloucester MT Extra Condensed';-inkscape-font-specification:'Gloucester MT Extra Condensed, Extra-Condensed';font-variant-ligatures:normal;font-variant-caps:normal;font-variant-numeric:normal;font-feature-settings:normal;text-align:start;writing-mode:lr-tb;text-anchor:start;stroke-width:2.24181454;stroke:#fbffff;stroke-opacity:1;stroke-miterlimit:4;stroke-dasharray:none;fill:#006a00;fill-opacity:1"
         id="path4602"
         inkscape:connector-curvature="0" />
    </g>
  </g>
</svg>
